:version 1.10
:name ASF
:units
  mass 1
  length 1
  angle deg
:documentation
  ASF file generated by Kaydara
:root
  axis xyz
  order  tx ty tz rx ry rz
  position 0 0 0
  orientation 0 0 0
:bonedata
  begin
    id 1
    name RightUpLegDummy
    direction -1 2.30186e-007 8.31532e-007
    length 4.46685
    axis 0 0 0 xyz
  end
  begin
    id 2
    name RightUpLeg
    direction -2.30187e-007 -1 1.24343e-010
    length 16.4045
    axis -3.49089 -0.000906625 0.000286804 xyz
    dof rx ry rz
  end
  begin
    id 3
    name RightLeg
    direction -2.30181e-007 -1 -4.17157e-009
    length 17.5097
    axis 3.68512 0.0193738 -0.131023 xyz
    dof rx ry rz
  end
  begin
    id 4
    name RightFoot
    direction 8.31421e-007 -4.51202e-011 1
    length 6.49508
    axis 4.81691e-005 -0.120479 -0.188788 xyz
    dof rx ry rz
  end
  begin
    id 5
    name RightToes
    direction 0.00124746 -0.014064 0.9999
    length 3.85082
    axis 0.000481921 0.542163 -0.142578 xyz
    dof rx ry rz
  end
  begin
    id 6
    name SpineDummy
    direction 0.0717043 0.9409 -0.331007
    length 10.0032
    axis 0 0 0 xyz
  end
  begin
    id 7
    name Spine
    direction 2.30186e-007 1 4.58806e-011
    length 9.84055
    axis -0.001389 0.000121418 2.40972e-006 xyz
    dof rx ry rz
  end
  begin
    id 8
    name Spine1
    direction 0 0 0
    length 0
    axis -0.001389 0.000121451 1.30017e-006 xyz
    dof rx ry rz
  end
  begin
    id 9
    name HEadDummy
    direction -0.00347485 0.950688 -0.310128
    length 8.00997
    axis -0.001389 0.000121451 1.30017e-006 xyz
  end
  begin
    id 10
    name HEad
    direction -0.0222688 0.980941 0.193023
    length 5.12695
    axis -0.001389 0.000121451 1.30017e-006 xyz
    dof rx ry rz
  end
  begin
    id 11
    name LeftShoulder1Dummy
    direction 0.988871 0.146793 -0.0242004
    length 3.5792
    axis -0.001389 0.000121451 1.30017e-006 xyz
  end
  begin
    id 12
    name LeftShoulder1
    direction 0.993832 0.108932 0.020779
    length 4.16823
    axis -0.001389 0.000121451 1.30017e-006 xyz
    dof rx ry rz
  end
  begin
    id 13
    name LeftArm
    direction 1 3.44807e-006 -8.31404e-007
    length 9.91437
    axis -23.1894 0.134784 0.967509 xyz
    dof rx ry rz
  end
  begin
    id 14
    name LeftForeArm
    direction 1 3.44842e-006 -8.31581e-007
    length 9.08575
    axis -9.91835 -0.06569 -0.177793 xyz
    dof rx ry rz
  end
  begin
    id 15
    name LeftHand
    direction 0.992938 -0.0411636 0.11126
    length 5.32135
    axis -0.00960232 -0.00340091 0.185173 xyz
    dof rx ry rz
  end
  begin
    id 16
    name RightShoulderDummy
    direction -0.988871 0.146793 -0.0241962
    length 3.5792
    axis -0.001389 0.000121451 1.30017e-006 xyz
  end
  begin
    id 17
    name RightShoulder
    direction -0.993832 0.108933 0.0207785
    length 4.16823
    axis 0.215806 0.000203643 -0.0068026 xyz
    dof rx ry rz
  end
  begin
    id 18
    name RightArm
    direction -1 3.90912e-006 8.31284e-007
    length 9.91437
    axis -23.2009 -0.134239 -0.964101 xyz
    dof rx ry rz
  end
  begin
    id 19
    name RightForeArm
    direction -1 3.90882e-006 8.31502e-007
    length 9.08575
    axis -9.92322 0.0658061 0.178867 xyz
    dof rx ry rz
  end
  begin
    id 20
    name RightHand
    direction -0.992843 -0.0414603 0.112003
    length 5.28593
    axis -0.00960638 0.00330671 -0.185228 xyz
    dof rx ry rz
  end
  begin
    id 21
    name LeftUpLegDummy
    direction 1 -2.30186e-007 -8.31532e-007
    length 4.46685
    axis 0 0 0 xyz
  end
  begin
    id 22
    name LeftUpLeg
    direction -2.30187e-007 -1 6.00931e-010
    length 16.4045
    axis -3.48766 0.00143442 -0.000524262 xyz
    dof rx ry rz
  end
  begin
    id 23
    name LeftLeg
    direction -2.30187e-007 -1 1.6669e-009
    length 17.5097
    axis 3.68178 -0.00654042 -0.000285133 xyz
    dof rx ry rz
  end
  begin
    id 24
    name LeftFoot
    direction 8.31532e-007 -4.54478e-011 1
    length 6.49508
    axis 1.87233e-006 4.66016e-005 -8.6538e-006 xyz
    dof rx ry rz
  end
  begin
    id 25
    name LeftToes
    direction 0.00818058 -0.00485161 0.999955
    length 3.85048
    axis 1.06247e-005 4.65869e-005 -8.65513e-006 xyz
    dof rx ry rz
  end
:hierarchy
  begin
    root RightUpLegDummy SpineDummy LeftUpLegDummy
    RightUpLegDummy RightUpLeg
    RightUpLeg RightLeg
    RightLeg RightFoot
    RightFoot RightToes
    SpineDummy Spine
    Spine Spine1
    Spine1 HEadDummy LeftShoulder1Dummy RightShoulderDummy
    HEadDummy HEad
    LeftShoulder1Dummy LeftShoulder1
    LeftShoulder1 LeftArm
    LeftArm LeftForeArm
    LeftForeArm LeftHand
    RightShoulderDummy RightShoulder
    RightShoulder RightArm
    RightArm RightForeArm
    RightForeArm RightHand
    LeftUpLegDummy LeftUpLeg
    LeftUpLeg LeftLeg
    LeftLeg LeftFoot
    LeftFoot LeftToes
  end

:SAMPLES-PER-SECOND 30
:FULLY-SPECIFIED
:DEGREES
66
root  50.1838 33.6905 28.9358 -173.444 -59.333 176.412
RightUpLeg  -7.36248 -8.82652 1.4802
RightLeg  14.45 -8.27284 -1.56485
RightFoot  -2.13583 -0.00895653 0.261515
RightToes  -22.6499 -0.0981586 -0.201073
Spine  4.41704 -1.61828 1.02861
Spine1  7.8599 -3.00919 1.10432
HEad  18.7139 -1.04066 5.11804
LeftShoulder1  0 -2.42657e-020 -4.95415e-022
LeftArm  -33.5627 4.13529 -93.3229
LeftForeArm  59.3927 -17.9181 -3.21908
LeftHand  0.383268 -10.6904 -4.46747
RightShoulder  0 2.42657e-020 1.07489e-018
RightArm  -42.06 -3.59087 82.9382
RightForeArm  56.7018 14.697 2.6101
RightHand  -1.1737 20.5206 -6.10918
LeftUpLeg  -15.7044 -7.41269 0.350145
LeftLeg  27.9735 1.55196 0.696925
LeftFoot  -4.30476 -0.0053139 -0.1665
LeftToes  -12.7743 3.33339e-006 -4.73431e-007
67
root  50.3239 33.6854 28.9504 -173.036 -59.7848 176.375
RightUpLeg  -7.86877 -8.98228 1.69058
RightLeg  14.3763 -8.55178 -1.60582
RightFoot  -2.03452 -0.00950408 0.256961
RightToes  -22.3289 -0.0981018 -0.201
Spine  4.27148 -1.70584 0.992549
Spine1  7.60833 -3.22363 1.11449
HEad  18.5969 -1.18035 5.54494
LeftShoulder1  0 -2.42657e-020 -4.95415e-022
LeftArm  -35.7662 4.60012 -92.971
LeftForeArm  61.0357 -16.6 -2.96094
LeftHand  0.36789 -10.5835 -4.34314
RightShoulder  0 2.42657e-020 1.07489e-018
RightArm  -44.7 -4.27245 83.8566
RightForeArm  59.5574 13.2775 2.33884
RightHand  -1.21257 20.3546 -6.37898
LeftUpLeg  -15.57 -8.121 0.143296
LeftLeg  27.3232 1.20422 0.523762
LeftFoot  -4.81038 -0.00593387 -0.141281
LeftToes  -12.4136 3.33339e-006 -4.73431e-007
68
root  50.4327 33.6878 28.9695 -172.774 -60.1922 176.324
RightUpLeg  -8.20565 -9.38533 1.81606
RightLeg  14.3384 -8.56765 -1.60292
RightFoot  -1.97058 -0.00963693 0.250703
RightToes  -22.1124 -0.0981356 -0.200978
Spine  4.20451 -1.75018 0.915442
Spine1  7.52013 -3.35991 1.08342
HEad  18.4131 -1.47512 6.05217
LeftShoulder1  0 -2.42657e-020 -4.95415e-022
LeftArm  -38.1975 5.03611 -92.4811
LeftForeArm  62.9082 -15.3465 -2.71802
LeftHand  0.360012 -10.4276 -4.3166
RightShoulder  0 2.42657e-020 1.07489e-018
RightArm  -46.1722 -5.40871 84.7157
RightForeArm  61.1538 12.5996 2.20983
RightHand  -1.29089 20.0652 -6.91932
LeftUpLeg  -15.2914 -7.79923 0.0398958
LeftLeg  26.2332 0.695611 0.28567
LeftFoot  -4.62039 -0.00349827 -0.0867234
LeftToes  -12.4541 3.33339e-006 -4.73431e-007
69
root  50.5185 33.696 29.0006 -172.543 -60.786 176.25
RightUpLeg  -8.48632 -9.96792 1.88622
RightLeg  14.3641 -8.55933 -1.60534
RightFoot  -1.91736 -0.0096139 0.246864
RightToes  -22.0483 -0.0982159 -0.200964
Spine  4.16354 -1.81406 0.797524
Spine1  7.49898 -3.52549 0.970659
HEad  18.0832 -1.92283 6.68356
LeftShoulder1  0 -2.42657e-020 -4.95415e-022
LeftArm  -40.2384 5.60317 -91.7804
LeftForeArm  64.1351 -14.3698 -2.53131
LeftHand  0.333372 -10.0799 -4.15153
RightShoulder  0 2.42657e-020 1.07489e-018
RightArm  -47.103 -6.74908 85.5887
RightForeArm  62.329 12.2774 2.14777
RightHand  -1.43881 20.0236 -7.76922
LeftUpLeg  -15.038 -7.16221 0.049353
LeftLeg  24.7541 -0.118843 -0.0487747
LeftFoot  -4.24339 -0.000516523 -0.0139512
LeftToes  -12.5987 3.33339e-006 -4.73431e-007
70
root  50.6088 33.7076 29.0749 -172.26 -61.5901 176.307
RightUpLeg  -8.9647 -10.5501 2.03275
RightLeg  14.3924 -8.77833 -1.65054
RightFoot  -1.78686 -0.00896109 0.238193
RightToes  -21.8858 -0.0982991 -0.200913
Spine  4.05347 -1.93311 0.730972
Spine1  7.346 -3.79535 0.944908
HEad  17.7223 -2.43033 7.15168
LeftShoulder1  0 -2.42657e-020 -4.95415e-022
LeftArm  -42.464 6.34709 -91.1288
LeftForeArm  65.1195 -13.5515 -2.37623
LeftHand  0.303845 -9.92097 -3.87233
RightShoulder  0 2.42657e-020 1.07489e-018
RightArm  -46.8454 -8.3032 86.1962
RightForeArm  62.5783 12.3555 2.16156
RightHand  -1.5572 19.9452 -8.47172
LeftUpLeg  -15.2374 -6.97224 0.222533
LeftLeg  23.3556 -0.98583 -0.355245
LeftFoot  -3.53196 0.00132967 0.0431171
LeftToes  -13.3517 3.33339e-006 -4.73431e-007
71
root  50.6526 33.7259 29.148 -171.822 -62.3906 176.191
RightUpLeg  -9.17192 -11.3273 2.05098
RightLeg  14.0312 -8.82916 -1.60261
RightFoot  -1.57518 -0.00675206 0.210412
RightToes  -21.8621 -0.0983412 -0.200783
Spine  3.96117 -2.04096 0.64063
Spine1  7.22976 -4.02981 0.847188
HEad  17.4146 -2.96853 7.54267
LeftShoulder1  0 -2.42657e-020 -4.95415e-022
LeftArm  -44.3012 7.24832 -90.4236
LeftForeArm  65.5356 -13.0302 -2.27854
LeftHand  0.28842 -9.71362 -3.76597
RightShoulder  0 2.42657e-020 1.07489e-018
RightArm  -47.0563 -9.62647 86.6491
RightForeArm  62.7021 12.3566 2.16148
RightHand  -1.56159 19.9461 -8.49614
LeftUpLeg  -15.6152 -7.03794 0.281381
LeftLeg  22.4606 -2.06671 -0.705201
LeftFoot  -2.53727 0.00172483 0.0778771
LeftToes  -14.2339 3.33339e-006 -4.73431e-007
72
root  50.6613 33.7413 29.2276 -171.606 -63.1146 176.149
RightUpLeg  -9.13343 -11.5824 2.04026
RightLeg  13.6141 -9.31325 -1.61994
RightFoot  -1.36862 -0.00474651 0.190946
RightToes  -21.8641 -0.0982983 -0.20053
Spine  3.95497 -2.09134 0.546098
Spine1  7.2792 -4.14471 0.719692
HEad  17.2673 -3.79578 7.88036
LeftShoulder1  0 -2.42657e-020 -4.95415e-022
LeftArm  -45.2549 7.96866 -89.6949
LeftForeArm  65.1227 -12.6227 -2.20424
LeftHand  0.260079 -9.15212 -3.62128
RightShoulder  0 2.42657e-020 1.07489e-018
RightArm  -47.3489 -10.6029 86.8955
RightForeArm  62.7095 12.2637 2.14437
RightHand  -1.53299 20.1035 -8.26505
LeftUpLeg  -15.8908 -7.3731 0.238946
LeftLeg  22.2321 -2.94543 -0.990517
LeftFoot  -2.68927 -0.00140739 0.128984
LeftToes  -14.0561 3.33339e-006 -4.73431e-007
